<?xml version="1.0" encoding="UTF-8"?>
<svg version="1.1" xmlns="http://www.w3.org/2000/svg" width="1030" height="305">
<path d="M0 0 C23.98301991 3.13031384 50.19655898 26.31746517 64.62915039 44.59350586 C70.13275493 51.76810923 75.0643866 59.08769999 79.5625 66.9375 C80.05065186 67.78844238 80.53880371 68.63938477 81.04174805 69.51611328 C84.19492667 75.17346464 86.73766593 80.93345548 89 87 C89.11480713 86.37246826 89.22961426 85.74493652 89.34790039 85.09838867 C94.4320257 57.82989242 102.91497299 32.08502701 123 12 C123.02253443 9.55036823 123.02253443 9.55036823 122.625 6.875 C122.51414063 5.96492188 122.40328125 5.05484375 122.2890625 4.1171875 C122.14597656 3.06917969 122.14597656 3.06917969 122 2 C122.7425 2.680625 123.485 3.36125 124.25 4.0625 C126.72073138 6.21505694 126.72073138 6.21505694 129.0625 5.9375 C131.27188211 4.86844414 133.05614405 3.49028956 135 2 C135.66 2 136.32 2 137 2 C136.56455128 5.04814101 136.086544 6.87499201 134.3125 9.4375 C132.68899923 11.92052118 132.68899923 11.92052118 133.61328125 14.53515625 C135.08663139 18.21645646 136.76836572 21.73212717 138.52929688 25.28271484 C150.18713947 48.82258932 153.88918539 73.89578765 150 100 C150.68964844 99.23816406 151.37929687 98.47632813 152.08984375 97.69140625 C169.78337534 78.21109726 189.48011419 60.80866616 217.05078125 59.078125 C217.69402344 59.05234375 218.33726562 59.0265625 219 59 C217.70756603 62.87730192 216.50544109 63.02139938 212.9375 64.875 C190.8443232 77.37612139 173.32417668 97.1236429 159.88671875 118.34375 C154.942887 125.30401001 150.87082159 127.03030569 142.75 128.6875 C141.84636719 128.88666016 140.94273437 129.08582031 140.01171875 129.29101562 C138.21597949 129.68504474 136.41835941 130.07060714 134.61889648 130.44726562 C131.36612698 131.13378284 128.12797295 131.87914552 124.88989258 132.6315918 C122.56756539 133.0842971 120.35841373 133.15215572 118 133 C118.68584231 126.91055163 120.86316723 121.37225982 122.875 115.625 C126.12010577 106.13229399 128.66954165 96.95094879 130 87 C130.13704346 86.01398804 130.13704346 86.01398804 130.27685547 85.00805664 C132.55400207 67.0811084 131.3346678 48.78701257 128.27539062 31.04516602 C128 29 128 29 128 25 C127.34 25 126.68 25 126 25 C125.82911865 25.58120605 125.6582373 26.16241211 125.48217773 26.76123047 C124.08500122 31.47038726 122.63359622 36.15445959 121.09765625 40.8203125 C111.0388474 71.70631204 108.87592441 101.68137301 111 134 C105.70144903 135.72185408 100.86601379 136.39712387 95.3125 136.625 C94.52955566 136.66294678 93.74661133 136.70089355 92.93994141 136.73999023 C86.62614047 137.0254512 80.31973964 137.11152482 74 137 C72.93093028 132.90964629 71.93835096 128.85274088 71.2109375 124.6875 C65.22402698 90.65242351 50.807512 61.28722077 30 34 C29.65852011 36.45743564 29.32674315 38.91559546 29 41.375 C28.90460938 42.05433594 28.80921875 42.73367187 28.7109375 43.43359375 C24.89580999 72.59206833 32.75153344 104.4384652 45.99609375 130.36328125 C47.10520605 133.27631938 46.87981328 134.13077812 46 137 C42.70749396 136.71736976 39.41622159 136.42218578 36.125 136.125 C35.2071875 136.04636719 34.289375 135.96773437 33.34375 135.88671875 C16.7827333 134.37056933 16.7827333 134.37056933 12.1953125 130.84375 C9.60079495 127.48288029 7.20428659 124.0480696 4.875 120.5 C-15.30726408 90.53208373 -42.0808579 72.63386552 -74 57 C-74 56.34 -74 55.68 -74 55 C-41.32529775 56.05063351 -11.57334445 69.45564954 11.1796875 92.94140625 C13 95 13 95 15 98 C14.84402344 96.84886719 14.68804687 95.69773437 14.52734375 94.51171875 C11.82113109 73.07805965 12.36590537 51.01915258 23.0234375 31.69921875 C24.26099063 29.08227697 24.26099063 29.08227697 23.37402344 26.65820312 C21.6870771 23.3946154 19.63058587 21.32558173 16.9921875 18.76953125 C16.26396286 18.05478889 16.26396286 18.05478889 15.52102661 17.3256073 C13.97937596 15.81383577 12.42815736 14.31244065 10.875 12.8125 C9.31566296 11.30094677 7.75866986 9.78724388 6.20755005 8.26725769 C4.80644424 6.89496651 3.39730224 5.5308947 1.98779297 4.16723633 C0 2 0 2 0 0 Z " fill="#F36F21" transform="translate(100,101)"/>
<path d="M0 0 C-0.56181361 6.02921919 -1.84320016 11.30518008 -3.875 17 C-4.17817139 17.85303711 -4.48134277 18.70607422 -4.79370117 19.58496094 C-20.39710018 62.26473345 -20.39710018 62.26473345 -32 70 C-34.51757813 70.57836914 -34.51757813 70.57836914 -37.53125 71.03515625 C-38.64306641 71.20426514 -39.75488281 71.37337402 -40.90039062 71.54760742 C-42.08826172 71.71752197 -43.27613281 71.88743652 -44.5 72.0625 C-45.71365234 72.23950439 -46.92730469 72.41650879 -48.17773438 72.59887695 C-57.39703855 73.89130846 -66.51818794 74.61381816 -75.81591797 74.88549805 C-78.19944756 75.01045617 -80.54323072 75.28793759 -82.9140625 75.5625 C-90.90396833 76.31526228 -98.88153631 75.76200244 -106.875 75.3125 C-107.71113831 75.26643616 -108.54727661 75.22037231 -109.40875244 75.1729126 C-164.90861183 72.03778187 -216.65411964 56.23096273 -265 29 C-260.6059391 52.21303821 -252.23379681 73.38982113 -241.33642578 94.3059082 C-239 98.80787594 -239 98.80787594 -239 101 C-254.42150404 96.79413526 -268.38183843 70.49931749 -275.94482422 57.40551758 C-296.7569343 20.25855882 -296.7569343 20.25855882 -296 7 C-290.48944815 7.58005809 -286.15404876 9.59597342 -281.1875 11.875 C-205.24989911 45.44177009 -117.37803416 47.12307389 -39.96679688 17.27319336 C-22.16595079 10.3316087 -22.16595079 10.3316087 -5.375 1.34887695 C-3 0 -3 0 0 0 Z " fill="#F36F21" transform="translate(325,204)"/>
<path d="M0 0 C0.76441406 0.20367187 1.52882812 0.40734375 2.31640625 0.6171875 C19.52478378 5.3989322 36.72326887 13.22794835 51 24 C51.8353125 24.61488281 52.670625 25.22976562 53.53125 25.86328125 C81.94961736 47.90463545 103.81241848 78.98011096 110.71484375 114.69921875 C110.85599609 115.83810547 110.85599609 115.83810547 111 117 C108 116 108 116 106.08984375 112.67578125 C105.36673719 111.2241592 104.64968432 109.76951172 103.9375 108.3125 C97.63346615 95.95358308 89.60654413 85.39416156 80.54296875 74.9375 C78.82296493 72.95064459 77.13727214 70.93364693 75.484375 68.890625 C52.79299501 42.48870489 14.00367745 26.99291259 -19.73217773 23.16772461 C-36.12108749 21.95562632 -52.98787221 22.06093902 -69 26 C-69.68352539 26.16628906 -70.36705078 26.33257812 -71.07128906 26.50390625 C-101.37056726 34.13881536 -128.64545292 49.19235315 -151 71 C-151.67804688 71.61617188 -152.35609375 72.23234375 -153.0546875 72.8671875 C-165.87829875 84.83943866 -177.17739084 101.35478167 -185 117 C-185.66 117 -186.32 117 -187 117 C-188.20801574 102.98701736 -180.40044368 90.02195193 -174 78 C-173.45786865 76.97374512 -173.45786865 76.97374512 -172.90478516 75.92675781 C-154.35399483 41.05685118 -122.95800982 13.79447564 -85 2 C-57.71242624 -5.64189139 -27.59365594 -7.413221 0 0 Z " fill="#FFC20E" transform="translate(203,39)"/>
<path d="M0 0 C5.19039543 2.97967145 8.81220493 7.87411478 10.6875 13.5 C11.38277769 20.76068556 11.60376668 26.90957276 7.11328125 32.91796875 C3.05429865 37.42177136 -1.08989328 40.0777274 -7.14453125 40.87109375 C-15.27505652 41.05224569 -19.96249089 39.64975294 -25.83984375 34.04296875 C-30.28435476 29.16044795 -31.78798322 24.1284838 -31.55078125 17.57421875 C-30.73298413 10.45536184 -27.86599649 6.51569312 -22.4453125 1.9453125 C-15.81135584 -2.5502259 -7.37875185 -3.20691907 0 0 Z " fill="#F36F21" transform="translate(189.3125,102.5)"/>
<path d="M0 0 C5.21031273 -0.09980707 10.42005385 -0.17190561 15.63110352 -0.21972656 C17.39910593 -0.23968762 19.16704366 -0.26686652 20.93481445 -0.30175781 C43.93495508 -0.74394316 43.93495508 -0.74394316 53.5 7.6875 C59.26244428 14.0875918 60.5493147 20.83477236 60.2890625 29.29296875 C59.24255467 39.0933732 54.53200358 45.86045891 47.390625 52.38671875 C38.84586933 58.15303262 29.87036694 57.35427878 20 57.1875 C18.44662752 57.17242973 16.89324094 57.15874546 15.33984375 57.14648438 C11.55954385 57.11365497 7.77992937 57.06200254 4 57 C4 56.01 4 55.02 4 54 C5.32 53.34 6.64 52.68 8 52 C8.10130235 45.64637854 8.17142368 39.29296477 8.21972656 32.9387207 C8.23985958 30.77653216 8.26716833 28.61439817 8.30175781 26.45239258 C8.35020117 23.34703116 8.37295172 20.24238864 8.390625 17.13671875 C8.41127014 16.16788254 8.43191528 15.19904633 8.45318604 14.20085144 C8.45348816 13.3001442 8.45379028 12.39943695 8.45410156 11.47143555 C8.46298401 10.67867722 8.47186646 9.88591888 8.48101807 9.06913757 C8.16377512 6.82330498 8.16377512 6.82330498 6.11224365 5.26350403 C4.04030224 4.02410803 2.3641883 3.42217648 0 3 C0 2.01 0 1.02 0 0 Z M20 5 C19.54312831 6.99045044 19.54312831 6.99045044 19.61181641 9.31030273 C19.60235992 10.20140244 19.59290344 11.09250214 19.5831604 12.01060486 C19.58923309 12.97519119 19.59530579 13.93977753 19.6015625 14.93359375 C19.59869232 15.92247086 19.59582214 16.91134796 19.59286499 17.93019104 C19.59082103 20.02418591 19.59637398 22.11819972 19.60888672 24.2121582 C19.62491842 27.42116985 19.60905768 30.62891866 19.58984375 33.83789062 C19.59182646 35.86979445 19.5956707 37.9016975 19.6015625 39.93359375 C19.59548981 40.89615585 19.58941711 41.85871796 19.5831604 42.85044861 C19.59261688 43.74470047 19.60207336 44.63895233 19.61181641 45.56030273 C19.61420319 46.34702866 19.61658997 47.13375458 19.61904907 47.94432068 C20.09646784 50.52055771 20.96713994 51.39725082 23 53 C28.17333515 54.61220306 33.21661379 54.31381821 38.1484375 52.1328125 C43.6964724 48.73844516 46.78349569 43.60621283 48.52734375 37.4453125 C50.21044509 28.7376973 49.1320258 20.87285389 45 13 C40.88517722 7.15823088 35.94530687 4.39159154 29 3 C24.75071047 2.60654727 23.59360621 2.60426253 20 5 Z " fill="#3A3A3C" transform="translate(366,81)"/>
<path d="M0 0 C0.99 0 1.98 0 3 0 C4.84218758 2.04150624 6.48336112 4.05563707 8.125 6.25 C8.60638428 6.87664551 9.08776855 7.50329102 9.58374023 8.14892578 C11.97557566 11.27371128 14.32267147 14.43025324 16.65234375 17.6015625 C17.0601709 18.15424805 17.46799805 18.70693359 17.88818359 19.27636719 C19.00788134 20.80064595 20.11558976 22.33371022 21.22265625 23.8671875 C21.80917969 24.57101563 22.39570313 25.27484375 23 26 C23.66 26 24.32 26 25 26 C26.62306489 24.07525019 28.13203917 22.14723228 29.625 20.125 C30.52256342 18.93163375 31.4210123 17.738933 32.3203125 16.546875 C32.76922852 15.94939453 33.21814453 15.35191406 33.68066406 14.73632812 C36.18417939 11.44154629 38.80073804 8.23761414 41.40625 5.0234375 C43.13370228 2.88511278 43.13370228 2.88511278 45 0 C45.99 0 46.98 0 48 0 C50.02347881 4.65687144 52.02075792 9.32420663 54 14 C54.28810547 14.67804687 54.57621094 15.35609375 54.87304688 16.0546875 C55.71724893 18.05320664 56.54791978 20.05684297 57.375 22.0625 C57.87773437 23.27035156 58.38046875 24.47820313 58.8984375 25.72265625 C59.91702345 28.75313004 60.25054589 30.84431486 60 34 C59.21238281 33.86722656 58.42476563 33.73445313 57.61328125 33.59765625 C36.23640731 30.13181988 15.48589868 30.00201411 -5.83789062 33.72460938 C-8.24420372 34.03110454 -10.57680347 34.04459871 -13 34 C-10.95288855 26.6052908 -8.33113703 19.57565701 -5.375 12.5 C-4.96765625 11.51257812 -4.5603125 10.52515625 -4.140625 9.5078125 C-1.20076885 2.4015377 -1.20076885 2.4015377 0 0 Z " fill="#FFC20E" transform="translate(139,0)"/>
<path d="M0 0 C0.02754082 3.04173098 0.04709291 6.08320113 0.0625 9.125 C0.07087891 9.96160156 0.07925781 10.79820313 0.08789062 11.66015625 C0.11600605 19.13886001 -0.39788569 26.54790197 -1 34 C-0.18321777 33.75765625 0.63356445 33.5153125 1.47509766 33.265625 C4.52597338 32.36461385 7.57887362 31.47092171 10.63330078 30.58203125 C11.95120643 30.19690168 13.26828303 29.80892266 14.58447266 29.41796875 C16.48375973 28.85436502 18.38639102 28.30207048 20.2890625 27.75 C21.43068848 27.41484375 22.57231445 27.0796875 23.74853516 26.734375 C26.95105034 26.01105576 29.73005786 25.86140643 33 26 C32.26955138 33.00613394 30.30433891 39.66142926 28.4375 46.4375 C28.10814453 47.64599609 27.77878906 48.85449219 27.43945312 50.09960938 C26.63004186 53.06745067 25.81678538 56.03418131 25 59 C22 59 22 59 19.82421875 57.0390625 C18.87521583 56.03315475 17.93488021 55.01904658 17 54 C6.54830903 42.82466493 -3.47193095 33.47553766 -16.95507812 26.12109375 C-20.05416374 24.4220726 -23.08318777 22.61188188 -26.125 20.8125 C-27.74882654 19.87296893 -29.37330344 18.93455312 -31 18 C-30.86865234 16.21582031 -30.86865234 16.21582031 -30 14 C-27.45556641 12.26074219 -27.45556641 12.26074219 -24.1015625 10.546875 C-23.51079926 10.24179016 -22.92003601 9.93670532 -22.31137085 9.62237549 C-21.06213273 8.98068718 -19.80946495 8.34563836 -18.55371094 7.71679688 C-16.63183464 6.75342597 -14.72176347 5.76934305 -12.8125 4.78125 C-3.45457596 0 -3.45457596 0 0 0 Z " fill="#FFC20E" transform="translate(267,28)"/>
<path d="M0 0 C13.86 0 27.72 0 42 0 C42.495 6.435 42.495 6.435 43 13 C42.01 13.33 41.02 13.66 40 14 C39.62875 12.88625 39.2575 11.7725 38.875 10.625 C37.65731796 7.87270498 37.24276683 7.14317018 34.5625 5.5625 C29.36904183 4.74248029 24.24546068 4.84721959 19 5 C18.97292861 7.24993359 18.95357171 9.49996095 18.9375 11.75 C18.92589844 13.00296875 18.91429687 14.2559375 18.90234375 15.546875 C18.97978973 18.28536501 19.17219185 20.41880293 20 23 C26.13427064 23.61133358 26.13427064 23.61133358 31.5 21.125 C33.02104397 19.08328039 33.02104397 19.08328039 34 17 C34.99 17 35.98 17 37 17 C37.495 26.405 37.495 26.405 38 36 C37.01 36 36.02 36 35 36 C34.54625 35.030625 34.0925 34.06125 33.625 33.0625 C32.34213779 29.92920418 32.34213779 29.92920418 30 29 C28.29297265 28.93003986 26.58331997 28.91559846 24.875 28.9375 C23.96492187 28.94652344 23.05484375 28.95554687 22.1171875 28.96484375 C21.06917969 28.98224609 21.06917969 28.98224609 20 29 C19.24332624 36.53181418 18.85635992 43.50280391 20 51 C26.37860992 51.35436722 32.17854052 50.82784464 38 48 C39.85145271 46.2533465 41.29740949 44.51448124 42.74609375 42.42578125 C43.15988281 41.95527344 43.57367187 41.48476562 44 41 C44.99 41 45.98 41 47 41 C46.59780148 46.83187853 45.86413931 50.36303283 42 55 C38.29907466 57.60922979 34.29896796 57.25553271 29.953125 57.1953125 C28.79632233 57.19106766 28.79632233 57.19106766 27.6161499 57.18673706 C25.16060668 57.17557013 22.7054324 57.15047229 20.25 57.125 C18.58203653 57.11496568 16.91406732 57.10584061 15.24609375 57.09765625 C11.16392103 57.07564225 7.082023 57.04113667 3 57 C3.41812522 54.57487372 3.65480138 53.30919896 5.52168274 51.63700867 C7.43267036 49.52088421 7.36480303 48.43875205 7.34057617 45.62036133 C7.34023628 44.29933159 7.34023628 44.29933159 7.33988953 42.95161438 C7.32440567 42.00465195 7.30892181 41.05768951 7.29296875 40.08203125 C7.28872391 39.10965012 7.28447906 38.13726898 7.28010559 37.13542175 C7.26330315 34.02750034 7.22564779 30.92022566 7.1875 27.8125 C7.1724552 25.70638957 7.15876644 23.60026898 7.14648438 21.49414062 C7.11339444 16.32917762 7.06160109 11.16469849 7 6 C4.69 5.01 2.38 4.02 0 3 C0 2.01 0 1.02 0 0 Z " fill="#3A3A3C" transform="translate(527,81)"/>
<path d="M0 0 C13.86 0 27.72 0 42 0 C42.495 6.435 42.495 6.435 43 13 C42.01 13.33 41.02 13.66 40 14 C39.62875 12.88625 39.2575 11.7725 38.875 10.625 C37.65731796 7.87270498 37.24276683 7.14317018 34.5625 5.5625 C29.36904183 4.74248029 24.24546068 4.84721959 19 5 C18.97292861 7.24993359 18.95357171 9.49996095 18.9375 11.75 C18.92589844 13.00296875 18.91429687 14.2559375 18.90234375 15.546875 C18.97978973 18.28536501 19.17219185 20.41880293 20 23 C26.13427064 23.61133358 26.13427064 23.61133358 31.5 21.125 C33.02104397 19.08328039 33.02104397 19.08328039 34 17 C34.99 17 35.98 17 37 17 C37.495 26.405 37.495 26.405 38 36 C37.01 36 36.02 36 35 36 C34.54625 35.030625 34.0925 34.06125 33.625 33.0625 C32.34213779 29.92920418 32.34213779 29.92920418 30 29 C28.29297265 28.93003986 26.58331997 28.91559846 24.875 28.9375 C23.96492188 28.94652344 23.05484375 28.95554687 22.1171875 28.96484375 C21.06917969 28.98224609 21.06917969 28.98224609 20 29 C19.24332624 36.53181418 18.85635992 43.50280391 20 51 C26.37860992 51.35436722 32.17854052 50.82784464 38 48 C39.85145271 46.2533465 41.29740949 44.51448124 42.74609375 42.42578125 C43.15988281 41.95527344 43.57367188 41.48476562 44 41 C44.99 41 45.98 41 47 41 C46.59780148 46.83187853 45.86413931 50.36303283 42 55 C38.29907466 57.60922979 34.29896796 57.25553271 29.953125 57.1953125 C28.79632233 57.19106766 28.79632233 57.19106766 27.6161499 57.18673706 C25.16060668 57.17557013 22.7054324 57.15047229 20.25 57.125 C18.58203653 57.11496568 16.91406732 57.10584061 15.24609375 57.09765625 C11.16392103 57.07564225 7.082023 57.04113667 3 57 C3.41812522 54.57487372 3.65480138 53.30919896 5.52168274 51.63700867 C7.43267036 49.52088421 7.36480303 48.43875205 7.34057617 45.62036133 C7.34023628 44.29933159 7.34023628 44.29933159 7.33988953 42.95161438 C7.32440567 42.00465195 7.30892181 41.05768951 7.29296875 40.08203125 C7.28872391 39.10965012 7.28447906 38.13726898 7.28010559 37.13542175 C7.26330315 34.02750034 7.22564779 30.92022566 7.1875 27.8125 C7.1724552 25.70638957 7.15876644 23.60026898 7.14648438 21.49414062 C7.11339444 16.32917762 7.06160109 11.16469849 7 6 C4.69 5.01 2.38 4.02 0 3 C0 2.01 0 1.02 0 0 Z " fill="#3A3A3C" transform="translate(454,81)"/>
<path d="M0 0 C1.24394531 0.00322266 2.48789062 0.00644531 3.76953125 0.00976562 C5.05472656 0.01814453 6.33992188 0.02652344 7.6640625 0.03515625 C8.97246094 0.03966797 10.28085937 0.04417969 11.62890625 0.04882812 C14.84900531 0.06058031 18.0690102 0.07701082 21.2890625 0.09765625 C20.75808484 4.38803383 19.80093334 7.45827197 17.6015625 11.171875 C17.06789063 12.08646484 16.53421875 13.00105469 15.984375 13.94335938 C15.42492187 14.88115234 14.86546875 15.81894531 14.2890625 16.78515625 C13.18265108 18.66274153 12.07838405 20.54159257 10.9765625 22.421875 C10.48542969 23.24776123 9.99429687 24.07364746 9.48828125 24.92456055 C8.16522897 27.16665868 8.16522897 27.16665868 7.2890625 30.09765625 C8.22105469 30.20078125 9.15304687 30.30390625 10.11328125 30.41015625 C15.23931268 31.1433685 20.14098867 32.64611498 25.1015625 34.09765625 C26.05482422 34.3709375 27.00808594 34.64421875 27.99023438 34.92578125 C34.99799107 36.95212054 34.99799107 36.95212054 37.2890625 38.09765625 C35.81660395 43.42271182 32.28714746 46.4059989 28.4140625 50.09765625 C27.16433549 51.30357839 25.91688474 52.51186454 24.671875 53.72265625 C24.0830957 54.295 23.49431641 54.86734375 22.88769531 55.45703125 C21.09966887 57.23376093 21.09966887 57.23376093 19.03125 59.97265625 C17.2890625 62.09765625 17.2890625 62.09765625 14.2890625 63.09765625 C13.05889528 59.59110484 11.99844493 56.07432262 11.0625 52.48046875 C6.6232217 35.61474466 -0.2731989 21.91396517 -9.70703125 7.328125 C-11.7109375 4.09765625 -11.7109375 4.09765625 -12.7109375 1.09765625 C-8.41488018 0.27543071 -4.37127147 -0.0200517 0 0 Z " fill="#FFC20E" transform="translate(304.7109375,86.90234375)"/>
<path d="M0 0 C4.99874665 -0.0745169 9.99716533 -0.12877437 14.99633789 -0.16479492 C16.69463742 -0.17982126 18.39289855 -0.20024823 20.09106445 -0.22631836 C22.54127518 -0.26297449 24.99097 -0.27978789 27.44140625 -0.29296875 C28.56839684 -0.31619453 28.56839684 -0.31619453 29.71815491 -0.33988953 C36.24710041 -0.34194364 40.83828709 1.12024964 45.875 5.5 C49.18299593 9.39175992 49.34499701 12.81022989 49.28125 17.71875 C48.69180611 22.49979486 45.85179203 25.24961178 42.375 28.3125 C38.51114587 31.05787004 36.30087775 31.13556494 31.5625 31.125 C30.40878906 31.12757812 29.25507812 31.13015625 28.06640625 31.1328125 C25 31 25 31 22 30 C22 29.01 22 28.02 22 27 C23.794375 27.0928125 23.794375 27.0928125 25.625 27.1875 C29.76315226 27.18016285 32.50170344 26.3321977 36 24 C38.63523598 20.6460633 38.35571368 17.12627875 38 13 C36.67088164 9.16032473 35.61590648 7.4440256 32.3125 5.0625 C28.02774946 3.68814605 25.39217837 4.16700065 21 5 C19.80154291 8.59537126 19.83780159 11.88971857 19.83203125 15.6328125 C19.82870285 16.38408417 19.82537445 17.13535583 19.82194519 17.90939331 C19.816883 19.50143828 19.81453665 21.09349386 19.81469727 22.68554688 C19.81252681 25.09523609 19.79440864 27.50445525 19.77539062 29.9140625 C19.74846517 37.50585591 19.85290132 44.65064245 22 52 C24.31 52.66 26.62 53.32 29 54 C29 54.99 29 55.98 29 57 C20.42 57 11.84 57 3 57 C3 56.01 3 55.02 3 54 C3.639375 53.71125 4.27875 53.4225 4.9375 53.125 C7.15206079 52.17176549 7.15206079 52.17176549 8 50 C8.11399381 48.62765509 8.16927422 47.25016005 8.19287109 45.87329102 C8.20893402 45.02223282 8.22499695 44.17117462 8.24154663 43.29432678 C8.28593557 39.41033703 8.32703872 35.52651776 8.35009766 31.64233398 C8.36668567 29.59078653 8.39401289 27.53929753 8.43212891 25.48803711 C8.48673702 22.53468772 8.50874401 19.58269161 8.5234375 16.62890625 C8.54610687 15.71009171 8.56877625 14.79127716 8.59213257 13.84461975 C8.58417512 11.45961983 8.53522553 9.32420007 8 7 C5.36622833 4.70977568 3.29022273 4.09674091 0 3 C0 2.01 0 1.02 0 0 Z " fill="#3A3A3C" transform="translate(599,81)"/>
<path d="M0 0 C4.47332568 4.47332568 7.04454631 8.9403435 7.52734375 15.328125 C7.31761932 20.25208979 6.08570976 24.57937673 2.78125 28.3046875 C-2.50828151 32.98906074 -6.77381888 33.79801602 -13.76953125 33.71484375 C-18.08221013 33.28659172 -20.12619156 32.10239226 -23.5625 29.4375 C-28.55207783 23.0035707 -29.38388573 17.40037829 -28.5625 9.4375 C-26.37723658 4.98603749 -23.6230479 2.24864855 -19.5625 -0.5625 C-13.32101151 -2.64299616 -6.01460967 -2.6379867 0 0 Z " fill="#F36F21" transform="translate(104.5625,135.5625)"/>
<path d="M0 0 C4.23503472 4.18925056 6.138426 7.8481751 6.3125 13.8125 C6.25598008 18.6661481 5.27564572 21.28169946 2 25 C-2.74418276 29.28133566 -6.39893902 30.36885699 -12.65234375 30.27734375 C-16.64745095 29.80537601 -18.75810293 28.41553115 -22 26 C-25.76122939 21.14999368 -27.37235896 17.32040907 -27.28125 11.125 C-26.64148425 6.2912143 -23.99443376 2.94471207 -20.5 -0.375 C-14.07528363 -4.55106564 -6.30677723 -4.20451815 0 0 Z " fill="#F36F21" transform="translate(278,144)"/>
<path d="M0 0 C0.72376831 0.54309814 0.72376831 0.54309814 1.4621582 1.09716797 C5.00808237 3.75735882 8.55518468 6.41594248 12.10546875 9.0703125 C14.14648438 10.59765625 14.14648438 10.59765625 16.1875 12.125 C16.87263672 12.63675781 17.55777344 13.14851563 18.26367188 13.67578125 C19.58407234 14.66449305 20.9017736 15.65682336 22.21630859 16.65332031 C23.79479468 17.84507083 25.39035064 19.01413811 26.98828125 20.1796875 C27.65214844 20.78039062 28.31601563 21.38109375 29 22 C29 22.99 29 23.98 29 25 C28.30962646 25.2266333 27.61925293 25.4532666 26.90795898 25.68676758 C23.75006811 26.72545341 20.59378167 27.76893495 17.4375 28.8125 C15.80844727 29.34713867 15.80844727 29.34713867 14.14648438 29.89257812 C7.44367421 32.10463958 7.44367421 32.10463958 0.91015625 34.76171875 C-2 36 -2 36 -5 36 C-5.25437289 28.31957998 -4.2787524 21.07527449 -3.0625 13.5 C-2.78889648 11.71335937 -2.78889648 11.71335937 -2.50976562 9.890625 C-1.13553656 1.13553656 -1.13553656 1.13553656 0 0 Z " fill="#FFC20E" transform="translate(96,10)"/>
<path d="M0 0 C1.00228624 4.48286991 1.99903835 8.96692126 2.99072266 13.45214844 C3.32872816 14.97722408 3.66823313 16.5019682 4.00927734 18.02636719 C4.49973536 20.21984413 4.98475649 22.41446382 5.46875 24.609375 C5.62186646 25.2886908 5.77498291 25.96800659 5.93273926 26.66790771 C6.64025097 29.90072174 7 32.66450614 7 36 C0.39361864 34.05057599 -6.18177382 32.01114592 -12.75 29.9375 C-13.56573486 29.6801709 -14.38146973 29.4228418 -15.22192383 29.15771484 C-19.49331182 27.8062807 -23.75445798 26.43115852 -28 25 C-25.75409702 20.75348038 -22.87509974 17.76892885 -19.3125 14.625 C-18.78084229 14.14748291 -18.24918457 13.66996582 -17.70141602 13.17797852 C-16.13991299 11.77883216 -14.57080245 10.38868786 -13 9 C-11.78183594 7.91138672 -11.78183594 7.91138672 -10.5390625 6.80078125 C-2.86857966 0 -2.86857966 0 0 0 Z " fill="#FFC20E" transform="translate(228,9)"/>
<path d="M0 0 C16.335 0.495 16.335 0.495 33 1 C33.495 1.99 33.495 1.99 34 3 C33.36669922 4.8125 33.36669922 4.8125 32.3046875 7 C31.92070801 7.80058838 31.53672852 8.60117676 31.14111328 9.42602539 C30.7232959 10.27543701 30.30547852 11.12484863 29.875 12 C29.45847168 12.85907959 29.04194336 13.71815918 28.61279297 14.60327148 C27.78629492 16.30472414 26.95645228 18.00455675 26.12304688 19.70263672 C25.19669792 21.59762447 24.29085811 23.50262347 23.390625 25.41015625 C22.97296875 26.28542969 22.5553125 27.16070312 22.125 28.0625 C21.77695312 28.79597656 21.42890625 29.52945313 21.0703125 30.28515625 C20 32 20 32 17 34 C12.56128409 27.62412264 8.72043066 21.07060027 5.125 14.1875 C4.62742187 13.26001953 4.12984375 12.33253906 3.6171875 11.37695312 C3.14796875 10.48298828 2.67875 9.58902344 2.1953125 8.66796875 C1.77266113 7.86641357 1.35000977 7.0648584 0.91455078 6.23901367 C0 4 0 4 0 0 Z " fill="#FFC20E" transform="translate(0,95)"/>
<path d="M0 0 C3.82533119 0.61566489 6.92929611 1.75296901 10.4140625 3.43359375 C11.42210938 3.91763672 12.43015625 4.40167969 13.46875 4.90039062 C15.03109375 5.66125977 15.03109375 5.66125977 16.625 6.4375 C17.67429687 6.94087891 18.72359375 7.44425781 19.8046875 7.96289062 C27.55811738 11.70541159 27.55811738 11.70541159 31 14 C30.734375 15.86328125 30.734375 15.86328125 30 18 C28.390625 19.16796875 28.390625 19.16796875 26.25 20.1875 C21.99100287 22.38194315 18.10415563 24.88234474 14.1875 27.625 C13.10855469 28.38039063 12.02960938 29.13578125 10.91796875 29.9140625 C9.16636564 31.16621251 7.43265056 32.44486467 5.73828125 33.7734375 C4 35 4 35 2 35 C0.88244936 32.76489871 0.80582076 31.36967322 0.68359375 28.88671875 C0.64161865 28.05624023 0.59964355 27.22576172 0.55639648 26.37011719 C0.51716064 25.48485352 0.4779248 24.59958984 0.4375 23.6875 C0.3950415 22.79063477 0.35258301 21.89376953 0.30883789 20.96972656 C-0.00280499 13.97437853 -0.11500309 7.00241024 0 0 Z " fill="#FFC20E" transform="translate(57,32)"/>
<path d="M0 0 C7.77129084 0.50109755 15.12216052 1.74376182 22.6875 3.5625 C24.18700195 3.91344727 24.18700195 3.91344727 25.71679688 4.27148438 C28.14617428 4.84105133 30.57375133 5.41727652 33 6 C32.20063863 9.82789268 30.96674394 11.27825379 28.0625 13.9375 C23.59130405 18.21554028 19.94171629 22.8095918 16.36352539 27.83374023 C15.30941043 29.27405649 14.16087088 30.64425368 13 32 C12.01 32 11.02 32 10 32 C8.56991979 27.92693379 7.14592905 23.85180574 5.72753906 19.7746582 C5.24418208 18.38800757 4.75916689 17.00193379 4.27246094 15.61645508 C3.57310047 13.62470502 2.87973282 11.63095545 2.1875 9.63671875 C1.76855469 8.43748779 1.34960938 7.23825684 0.91796875 6.00268555 C0 3 0 3 0 0 Z " fill="#FFC20E" transform="translate(23,63)"/>
<path d="M0 0 C3.39696158 2.54772118 5.43904201 5.08403148 7 9 C7.82376275 16.86406068 8.04252336 23.66082777 3 30 C-1.23331432 32.82220955 -5.02868595 32.78619823 -10 32 C-13.39696158 29.45227882 -15.43904201 26.91596852 -17 23 C-17.82376275 15.13593932 -18.04252336 8.33917223 -13 2 C-8.76668568 -0.82220955 -4.97131405 -0.78619823 0 0 Z M-7 6 C-9.84763394 8.97144411 -10.6953952 11.81439657 -11.0625 15.8984375 C-10.95193832 19.61607393 -9.94979071 21.81534184 -8 25 C-5.42267086 26.05167527 -5.42267086 26.05167527 -3 26 C-0.15236606 23.02855589 0.6953952 20.18560343 1.0625 16.1015625 C0.95193832 12.38392607 -0.05020929 10.18465816 -2 7 C-4.57732914 5.94832473 -4.57732914 5.94832473 -7 6 Z " fill="#3A3A3C" transform="translate(869,234)"/>
<path d="M0 0 C3.39696158 2.54772118 5.43904201 5.08403148 7 9 C7.82376275 16.86406068 8.04252336 23.66082777 3 30 C-1.23331432 32.82220955 -5.02868595 32.78619823 -10 32 C-13.39696158 29.45227882 -15.43904201 26.91596852 -17 23 C-17.82376275 15.13593932 -18.04252336 8.33917223 -13 2 C-8.76668568 -0.82220955 -4.97131405 -0.78619823 0 0 Z M-7 6 C-9.84763394 8.97144411 -10.6953952 11.81439657 -11.0625 15.8984375 C-10.95193832 19.61607393 -9.94979071 21.81534184 -8 25 C-5.42267086 26.05167527 -5.42267086 26.05167527 -3 26 C-0.15236606 23.02855589 0.6953952 20.18560343 1.0625 16.1015625 C0.95193832 12.38392607 -0.05020929 10.18465816 -2 7 C-4.57732914 5.94832473 -4.57732914 5.94832473 -7 6 Z " fill="#3A3A3C" transform="translate(542,234)"/>
<path d="M0 0 C3.39696158 2.54772118 5.43904201 5.08403148 7 9 C7.82376275 16.86406068 8.04252336 23.66082777 3 30 C-1.23331432 32.82220955 -5.02868595 32.78619823 -10 32 C-13.39696158 29.45227882 -15.43904201 26.91596852 -17 23 C-17.82376275 15.13593932 -18.04252336 8.33917223 -13 2 C-8.76668568 -0.82220955 -4.97131405 -0.78619823 0 0 Z M-7 6 C-9.84763394 8.97144411 -10.6953952 11.81439657 -11.0625 15.8984375 C-10.95193832 19.61607393 -9.94979071 21.81534184 -8 25 C-5.42267086 26.05167527 -5.42267086 26.05167527 -3 26 C-0.15236606 23.02855589 0.6953952 20.18560343 1.0625 16.1015625 C0.95193832 12.38392607 -0.05020929 10.18465816 -2 7 C-4.57732914 5.94832473 -4.57732914 5.94832473 -7 6 Z " fill="#3A3A3C" transform="translate(878,185)"/>
<path d="M0 0 C3.39696158 2.54772118 5.43904201 5.08403148 7 9 C7.82376275 16.86406068 8.04252336 23.66082777 3 30 C-1.23331432 32.82220955 -5.02868595 32.78619823 -10 32 C-13.39696158 29.45227882 -15.43904201 26.91596852 -17 23 C-17.82376275 15.13593932 -18.04252336 8.33917223 -13 2 C-8.76668568 -0.82220955 -4.97131405 -0.78619823 0 0 Z M-7 6 C-9.84763394 8.97144411 -10.6953952 11.81439657 -11.0625 15.8984375 C-10.95193832 19.61607393 -9.94979071 21.81534184 -8 25 C-5.42267086 26.05167527 -5.42267086 26.05167527 -3 26 C-0.15236606 23.02855589 0.6953952 20.18560343 1.0625 16.1015625 C0.95193832 12.38392607 -0.05020929 10.18465816 -2 7 C-4.57732914 5.94832473 -4.57732914 5.94832473 -7 6 Z " fill="#3A3A3C" transform="translate(741,185)"/>
<path d="M0 0 C2.31 0 4.62 0 7 0 C9.31 4.62 11.62 9.24 14 14 C14.33 9.38 14.66 4.76 15 0 C16.98 0 18.96 0 21 0 C21 9.9 21 19.8 21 30 C18.69 30 16.38 30 14 30 C11.69 25.05 9.38 20.1 7 15 C6.67 19.95 6.34 24.9 6 30 C4.02 30 2.04 30 0 30 C0 20.1 0 10.2 0 0 Z " fill="#3A3A3C" transform="translate(881,235)"/>
<path d="M0 0 C2.31 0 4.62 0 7 0 C9.31 4.62 11.62 9.24 14 14 C14.33 9.38 14.66 4.76 15 0 C16.98 0 18.96 0 21 0 C21 9.9 21 19.8 21 30 C18.69 30 16.38 30 14 30 C11.69 25.05 9.38 20.1 7 15 C6.67 19.95 6.34 24.9 6 30 C4.02 30 2.04 30 0 30 C0 20.1 0 10.2 0 0 Z " fill="#3A3A3C" transform="translate(793,235)"/>
<path d="M0 0 C2.31 0 4.62 0 7 0 C9.31 4.62 11.62 9.24 14 14 C14.33 9.38 14.66 4.76 15 0 C16.98 0 18.96 0 21 0 C21 9.9 21 19.8 21 30 C18.69 30 16.38 30 14 30 C11.69 25.05 9.38 20.1 7 15 C6.67 19.95 6.34 24.9 6 30 C4.02 30 2.04 30 0 30 C0 20.1 0 10.2 0 0 Z " fill="#3A3A3C" transform="translate(614,235)"/>
<path d="M0 0 C2.31 0 4.62 0 7 0 C9.31 4.62 11.62 9.24 14 14 C14.33 9.38 14.66 4.76 15 0 C16.98 0 18.96 0 21 0 C21 9.9 21 19.8 21 30 C18.69 30 16.38 30 14 30 C11.69 25.05 9.38 20.1 7 15 C6.67 19.95 6.34 24.9 6 30 C4.02 30 2.04 30 0 30 C0 20.1 0 10.2 0 0 Z " fill="#3A3A3C" transform="translate(553,235)"/>
<path d="M0 0 C2.31 0 4.62 0 7 0 C9.31 4.62 11.62 9.24 14 14 C14.33 9.38 14.66 4.76 15 0 C16.98 0 18.96 0 21 0 C21 9.9 21 19.8 21 30 C18.69 30 16.38 30 14 30 C11.69 25.05 9.38 20.1 7 15 C6.67 19.95 6.34 24.9 6 30 C4.02 30 2.04 30 0 30 C0 20.1 0 10.2 0 0 Z " fill="#3A3A3C" transform="translate(753,186)"/>
<path d="M0 0 C4.95 0 9.9 0 15 0 C20 5 20 5 20.59375 7.31640625 C20.33116487 13.6075083 20.33116487 13.6075083 18.3125 16 C16.72176055 17.91205411 16.72176055 17.91205411 17.43359375 20.12890625 C18.21445707 22.45655145 19.07824876 24.72495034 20 27 C20.33 27.99 20.66 28.98 21 30 C18.36 30 15.72 30 13 30 C12.32880451 28.5437455 11.66318193 27.08492133 11 25.625 C10.62875 24.81289063 10.2575 24.00078125 9.875 23.1640625 C9 21 9 21 9 19 C8.01 19 7.02 19 6 19 C6 22.63 6 26.26 6 30 C4.02 30 2.04 30 0 30 C0 20.1 0 10.2 0 0 Z M6 6 C6 8.31 6 10.62 6 13 C7.98 13 9.96 13 12 13 C12.66 11.68 13.32 10.36 14 9 C13.34 8.01 12.68 7.02 12 6 C8.91634129 5.7497843 8.91634129 5.7497843 6 6 Z " fill="#3A3A3C" transform="translate(938,235)"/>
<path d="M0 0 C4.95 0 9.9 0 15 0 C20 5 20 5 20.59375 7.31640625 C20.33116487 13.6075083 20.33116487 13.6075083 18.3125 16 C16.72176055 17.91205411 16.72176055 17.91205411 17.43359375 20.12890625 C18.21445707 22.45655145 19.07824876 24.72495034 20 27 C20.33 27.99 20.66 28.98 21 30 C18.36 30 15.72 30 13 30 C12.32880451 28.5437455 11.66318193 27.08492133 11 25.625 C10.62875 24.81289063 10.2575 24.00078125 9.875 23.1640625 C9 21 9 21 9 19 C8.01 19 7.02 19 6 19 C6 22.63 6 26.26 6 30 C4.02 30 2.04 30 0 30 C0 20.1 0 10.2 0 0 Z M6 6 C6 8.31 6 10.62 6 13 C7.98 13 9.96 13 12 13 C12.66 11.68 13.32 10.36 14 9 C13.34 8.01 12.68 7.02 12 6 C8.91634129 5.7497843 8.91634129 5.7497843 6 6 Z " fill="#3A3A3C" transform="translate(701,235)"/>
<path d="M0 0 C4.95 0 9.9 0 15 0 C20 5 20 5 20.59375 7.31640625 C20.33116487 13.6075083 20.33116487 13.6075083 18.3125 16 C16.72176055 17.91205411 16.72176055 17.91205411 17.43359375 20.12890625 C18.21445707 22.45655145 19.07824876 24.72495034 20 27 C20.33 27.99 20.66 28.98 21 30 C18.36 30 15.72 30 13 30 C12.32880451 28.5437455 11.66318193 27.08492133 11 25.625 C10.62875 24.81289062 10.2575 24.00078125 9.875 23.1640625 C9 21 9 21 9 19 C8.01 19 7.02 19 6 19 C6 22.63 6 26.26 6 30 C4.02 30 2.04 30 0 30 C0 20.1 0 10.2 0 0 Z M6 6 C6 8.31 6 10.62 6 13 C7.98 13 9.96 13 12 13 C12.66 11.68 13.32 10.36 14 9 C13.34 8.01 12.68 7.02 12 6 C8.91634129 5.7497843 8.91634129 5.7497843 6 6 Z " fill="#3A3A3C" transform="translate(837,186)"/>
<path d="M0 0 C4.95 0 9.9 0 15 0 C20 5 20 5 20.59375 7.31640625 C20.33116487 13.6075083 20.33116487 13.6075083 18.3125 16 C16.72176055 17.91205411 16.72176055 17.91205411 17.43359375 20.12890625 C18.21445707 22.45655145 19.07824876 24.72495034 20 27 C20.33 27.99 20.66 28.98 21 30 C18.36 30 15.72 30 13 30 C12.32880451 28.5437455 11.66318193 27.08492133 11 25.625 C10.62875 24.81289062 10.2575 24.00078125 9.875 23.1640625 C9 21 9 21 9 19 C8.01 19 7.02 19 6 19 C6 22.63 6 26.26 6 30 C4.02 30 2.04 30 0 30 C0 20.1 0 10.2 0 0 Z M6 6 C6 8.31 6 10.62 6 13 C7.98 13 9.96 13 12 13 C12.66 11.68 13.32 10.36 14 9 C13.34 8.01 12.68 7.02 12 6 C8.91634129 5.7497843 8.91634129 5.7497843 6 6 Z " fill="#3A3A3C" transform="translate(558,186)"/>
<path d="M0 0 C3.125 2.3125 3.125 2.3125 5 5 C5 5.99 5 6.98 5 8 C3.02 8.66 1.04 9.32 -1 10 C-1.66 9.01 -2.32 8.02 -3 7 C-4.65 7.33 -6.3 7.66 -8 8 C-10.21600574 13.21413116 -10.06905312 16.56564666 -9 22 C-8.34 22.99 -7.68 23.98 -7 25 C-4.41619823 25.25030977 -4.41619823 25.25030977 -2 25 C-1.67 23.35 -1.34 21.7 -1 20 C-2.65 20 -4.3 20 -6 20 C-6 18.02 -6 16.04 -6 14 C-2.37 14 1.26 14 5 14 C5.13501894 16.43934225 5.23403897 18.87124104 5.3125 21.3125 C5.35439453 22.00279297 5.39628906 22.69308594 5.43945312 23.40429688 C5.48828125 25.42578125 5.48828125 25.42578125 5 29 C1.11286902 32.43305904 -2.63945271 32.57025438 -7.625 32.421875 C-11.32112177 31.76532705 -12.84427436 29.96412276 -15 27 C-18.37371919 21.65229618 -17.57287186 15.06692001 -17 9 C-14.2023101 0.52423996 -8.24427959 -1.31278337 0 0 Z " fill="#3A3A3C" transform="translate(933,185)"/>
<path d="M0 0 C14 0 14 0 17.75 1.6875 C21.75116127 5.79980464 22.30882486 9.81923039 22.375 15.4375 C22.28675315 21.00965811 21.89947686 23.99220434 18 28 C14 30 14 30 0 30 C0 20.1 0 10.2 0 0 Z M6 6 C6 11.94 6 17.88 6 24 C11.46943263 24.48307734 11.46943263 24.48307734 13.8125 23 C15.67579296 19.86182239 16.01399948 16.58386678 16 13 C15.09108722 9.78384707 14.35959872 8.35959872 12 6 C10.02 6 8.04 6 6 6 Z " fill="#3A3A3C" transform="translate(641,235)"/>
<path d="M0 0 C14 0 14 0 17.75 1.6875 C21.75116127 5.79980464 22.30882486 9.81923039 22.375 15.4375 C22.28675315 21.00965811 21.89947686 23.99220434 18 28 C14 30 14 30 0 30 C0 20.1 0 10.2 0 0 Z M6 6 C6 11.94 6 17.88 6 24 C11.46943263 24.48307734 11.46943263 24.48307734 13.8125 23 C15.67579296 19.86182239 16.01399948 16.58386678 16 13 C15.09108722 9.78384707 14.35959872 8.35959872 12 6 C10.02 6 8.04 6 6 6 Z " fill="#3A3A3C" transform="translate(392,235)"/>
<path d="M0 0 C14 0 14 0 17.75 1.6875 C21.75116127 5.79980464 22.30882486 9.81923039 22.375 15.4375 C22.28675315 21.00965811 21.89947686 23.99220434 18 28 C14 30 14 30 0 30 C0 20.1 0 10.2 0 0 Z M6 6 C6 11.94 6 17.88 6 24 C11.46943263 24.48307734 11.46943263 24.48307734 13.8125 23 C15.67579296 19.86182239 16.01399948 16.58386678 16 13 C15.09108722 9.78384707 14.35959872 8.35959872 12 6 C10.02 6 8.04 6 6 6 Z " fill="#3A3A3C" transform="translate(607,186)"/>
<path d="M0 0 C14 0 14 0 17.75 1.6875 C21.75116127 5.79980464 22.30882486 9.81923039 22.375 15.4375 C22.28675315 21.00965811 21.89947686 23.99220434 18 28 C14 30 14 30 0 30 C0 20.1 0 10.2 0 0 Z M6 6 C6 11.94 6 17.88 6 24 C11.46943263 24.48307734 11.46943263 24.48307734 13.8125 23 C15.67579296 19.86182239 16.01399948 16.58386678 16 13 C15.09108722 9.78384707 14.35959872 8.35959872 12 6 C10.02 6 8.04 6 6 6 Z " fill="#3A3A3C" transform="translate(371,186)"/>
<path d="M0 0 C2.97 0 5.94 0 9 0 C10.14456903 3.78872135 11.28374655 7.57901747 12.41796875 11.37084961 C12.99454822 13.29431293 13.57537931 15.21650011 14.15625 17.13867188 C14.5171875 18.34716797 14.878125 19.55566406 15.25 20.80078125 C15.75273438 22.47394409 15.75273438 22.47394409 16.265625 24.1809082 C17 27 17 27 17 30 C14.69 30 12.38 30 10 30 C9.505 27.525 9.505 27.525 9 25 C6.03 25 3.06 25 0 25 C-0.33 26.65 -0.66 28.3 -1 30 C-3.31 30 -5.62 30 -8 30 C-6.72977021 22.96735667 -4.98783682 16.19875528 -2.875 9.375 C-2.59785156 8.46621094 -2.32070313 7.55742187 -2.03515625 6.62109375 C-1.36103243 4.41275709 -0.68113281 2.2061849 0 0 Z M4 7 C3.01 10.96 2.02 14.92 1 19 C3.31 19 5.62 19 8 19 C7.01 15.04 6.02 11.08 5 7 C4.67 7 4.34 7 4 7 Z " fill="#3A3A3C" transform="translate(595,235)"/>
<path d="M0 0 C2.97 0 5.94 0 9 0 C10.14456903 3.78872135 11.28374655 7.57901747 12.41796875 11.37084961 C12.99454822 13.29431293 13.57537931 15.21650011 14.15625 17.13867188 C14.5171875 18.34716797 14.878125 19.55566406 15.25 20.80078125 C15.75273437 22.47394409 15.75273437 22.47394409 16.265625 24.1809082 C17 27 17 27 17 30 C14.69 30 12.38 30 10 30 C9.505 27.525 9.505 27.525 9 25 C6.03 25 3.06 25 0 25 C-0.33 26.65 -0.66 28.3 -1 30 C-3.31 30 -5.62 30 -8 30 C-6.72977021 22.96735667 -4.98783682 16.19875528 -2.875 9.375 C-2.59785156 8.46621094 -2.32070313 7.55742187 -2.03515625 6.62109375 C-1.36103243 4.41275709 -0.68113281 2.2061849 0 0 Z M4 7 C3.01 10.96 2.02 14.92 1 19 C3.31 19 5.62 19 8 19 C7.01 15.04 6.02 11.08 5 7 C4.67 7 4.34 7 4 7 Z " fill="#3A3A3C" transform="translate(476,235)"/>
<path d="M0 0 C2.97 0 5.94 0 9 0 C10.14456903 3.78872135 11.28374655 7.57901747 12.41796875 11.37084961 C12.99454822 13.29431293 13.57537931 15.21650011 14.15625 17.13867188 C14.5171875 18.34716797 14.878125 19.55566406 15.25 20.80078125 C15.75273438 22.47394409 15.75273438 22.47394409 16.265625 24.1809082 C17 27 17 27 17 30 C14.69 30 12.38 30 10 30 C9.505 27.525 9.505 27.525 9 25 C6.03 25 3.06 25 0 25 C-0.33 26.65 -0.66 28.3 -1 30 C-3.31 30 -5.62 30 -8 30 C-6.72977021 22.96735667 -4.98783682 16.19875528 -2.875 9.375 C-2.59785156 8.46621094 -2.32070313 7.55742187 -2.03515625 6.62109375 C-1.36103243 4.41275709 -0.68113281 2.2061849 0 0 Z M4 7 C3.01 10.96 2.02 14.92 1 19 C3.31 19 5.62 19 8 19 C7.01 15.04 6.02 11.08 5 7 C4.67 7 4.34 7 4 7 Z " fill="#3A3A3C" transform="translate(675,186)"/>
<path d="M0 0 C2.97 0 5.94 0 9 0 C10.14456903 3.78872135 11.28374655 7.57901747 12.41796875 11.37084961 C12.99454822 13.29431293 13.57537931 15.21650011 14.15625 17.13867188 C14.5171875 18.34716797 14.878125 19.55566406 15.25 20.80078125 C15.75273438 22.47394409 15.75273438 22.47394409 16.265625 24.1809082 C17 27 17 27 17 30 C14.69 30 12.38 30 10 30 C9.505 27.525 9.505 27.525 9 25 C6.03 25 3.06 25 0 25 C-0.33 26.65 -0.66 28.3 -1 30 C-3.31 30 -5.62 30 -8 30 C-6.72977021 22.96735667 -4.98783682 16.19875528 -2.875 9.375 C-2.59785156 8.46621094 -2.32070313 7.55742187 -2.03515625 6.62109375 C-1.36103243 4.41275709 -0.68113281 2.2061849 0 0 Z M4 7 C3.01 10.96 2.02 14.92 1 19 C3.31 19 5.62 19 8 19 C7.01 15.04 6.02 11.08 5 7 C4.67 7 4.34 7 4 7 Z " fill="#3A3A3C" transform="translate(588,186)"/>
<path d="M0 0 C2.97 0 5.94 0 9 0 C10.14456903 3.78872135 11.28374655 7.57901747 12.41796875 11.37084961 C12.99454822 13.29431293 13.57537931 15.21650011 14.15625 17.13867188 C14.5171875 18.34716797 14.878125 19.55566406 15.25 20.80078125 C15.75273437 22.47394409 15.75273437 22.47394409 16.265625 24.1809082 C17 27 17 27 17 30 C14.69 30 12.38 30 10 30 C9.505 27.525 9.505 27.525 9 25 C6.03 25 3.06 25 0 25 C-0.33 26.65 -0.66 28.3 -1 30 C-3.31 30 -5.62 30 -8 30 C-6.72977021 22.96735667 -4.98783682 16.19875528 -2.875 9.375 C-2.59785156 8.46621094 -2.32070313 7.55742187 -2.03515625 6.62109375 C-1.36103243 4.41275709 -0.68113281 2.2061849 0 0 Z M4 7 C3.01 10.96 2.02 14.92 1 19 C3.31 19 5.62 19 8 19 C7.01 15.04 6.02 11.08 5 7 C4.67 7 4.34 7 4 7 Z " fill="#3A3A3C" transform="translate(457,186)"/>
<path d="M0 0 C1.98 0 3.96 0 6 0 C6 3.63 6 7.26 6 11 C8.97 11 11.94 11 15 11 C15 7.37 15 3.74 15 0 C16.98 0 18.96 0 21 0 C21 9.9 21 19.8 21 30 C19.02 30 17.04 30 15 30 C15 25.71 15 21.42 15 17 C12.03 17 9.06 17 6 17 C6 21.29 6 25.58 6 30 C4.02 30 2.04 30 0 30 C0 20.1 0 10.2 0 0 Z " fill="#3A3A3C" transform="translate(943,186)"/>
<path d="M0 0 C1.98 0 3.96 0 6 0 C6 3.63 6 7.26 6 11 C8.97 11 11.94 11 15 11 C15 7.37 15 3.74 15 0 C16.98 0 18.96 0 21 0 C21 9.9 21 19.8 21 30 C19.02 30 17.04 30 15 30 C15 25.71 15 21.42 15 17 C12.03 17 9.06 17 6 17 C6 21.29 6 25.58 6 30 C4.02 30 2.04 30 0 30 C0 20.1 0 10.2 0 0 Z " fill="#3A3A3C" transform="translate(810,186)"/>
<path d="M0 0 C1.98 0 3.96 0 6 0 C6.02505615 0.62044189 6.0501123 1.24088379 6.07592773 1.88012695 C6.19196721 4.69112397 6.31465759 7.50179241 6.4375 10.3125 C6.47681641 11.28896484 6.51613281 12.26542969 6.55664062 13.27148438 C6.59853516 14.20927734 6.64042969 15.14707031 6.68359375 16.11328125 C6.72025146 16.97735596 6.75690918 17.84143066 6.79467773 18.73168945 C6.92747354 21.1647826 6.92747354 21.1647826 8 24 C9.65 24 11.3 24 13 24 C13.95168683 21.14493951 14.1900946 19.09062718 14.31640625 16.11328125 C14.35830078 15.17548828 14.40019531 14.23769531 14.44335938 13.27148438 C14.48267578 12.29501953 14.52199219 11.31855469 14.5625 10.3125 C14.60568359 9.32443359 14.64886719 8.33636719 14.69335938 7.31835938 C14.79941654 4.87904454 14.90147714 2.43962887 15 0 C16.98 0 18.96 0 21 0 C21.11638426 4.06225821 21.18731373 8.1240863 21.25 12.1875 C21.30027344 13.91323242 21.30027344 13.91323242 21.3515625 15.67382812 C21.36445312 16.78564453 21.37734375 17.89746094 21.390625 19.04296875 C21.41157227 20.06414795 21.43251953 21.08532715 21.45410156 22.13745117 C20.88121902 25.74876717 19.50385825 27.38934073 17 30 C13.54260443 31.72869779 9.78024432 31.48966895 6 31 C3.12970131 29.20606332 1.50868362 28.01736724 0 25 C-0.084915 23.1136088 -0.107193 21.22421485 -0.09765625 19.3359375 C-0.09443359 18.21445313 -0.09121094 17.09296875 -0.08789062 15.9375 C-0.07951172 14.761875 -0.07113281 13.58625 -0.0625 12.375 C-0.05798828 11.19164062 -0.05347656 10.00828125 -0.04882812 8.7890625 C-0.03701467 5.85932493 -0.02054258 2.92968728 0 0 Z " fill="#3A3A3C" transform="translate(963,235)"/>
<path d="M0 0 C1.98 0 3.96 0 6 0 C6.02505615 0.62044189 6.0501123 1.24088379 6.07592773 1.88012695 C6.19196721 4.69112397 6.31465759 7.50179241 6.4375 10.3125 C6.47681641 11.28896484 6.51613281 12.26542969 6.55664062 13.27148438 C6.59853516 14.20927734 6.64042969 15.14707031 6.68359375 16.11328125 C6.72025146 16.97735596 6.75690918 17.84143066 6.79467773 18.73168945 C6.92747354 21.1647826 6.92747354 21.1647826 8 24 C9.65 24 11.3 24 13 24 C13.95168683 21.14493951 14.1900946 19.09062718 14.31640625 16.11328125 C14.35830078 15.17548828 14.40019531 14.23769531 14.44335938 13.27148438 C14.48267578 12.29501953 14.52199219 11.31855469 14.5625 10.3125 C14.60568359 9.32443359 14.64886719 8.33636719 14.69335938 7.31835938 C14.79941654 4.87904454 14.90147714 2.43962887 15 0 C16.98 0 18.96 0 21 0 C21.11638426 4.06225821 21.18731373 8.1240863 21.25 12.1875 C21.30027344 13.91323242 21.30027344 13.91323242 21.3515625 15.67382812 C21.36445313 16.78564453 21.37734375 17.89746094 21.390625 19.04296875 C21.41157227 20.06414795 21.43251953 21.08532715 21.45410156 22.13745117 C20.88121902 25.74876717 19.50385825 27.38934073 17 30 C13.54260443 31.72869779 9.78024432 31.48966895 6 31 C3.12970131 29.20606332 1.50868362 28.01736724 0 25 C-0.084915 23.1136088 -0.107193 21.22421485 -0.09765625 19.3359375 C-0.09443359 18.21445313 -0.09121094 17.09296875 -0.08789062 15.9375 C-0.07951172 14.761875 -0.07113281 13.58625 -0.0625 12.375 C-0.05798828 11.19164062 -0.05347656 10.00828125 -0.04882812 8.7890625 C-0.03701467 5.85932493 -0.02054258 2.92968728 0 0 Z " fill="#3A3A3C" transform="translate(419,235)"/>
<path d="M0 0 C1.98 0 3.96 0 6 0 C6.02505615 0.62044189 6.0501123 1.24088379 6.07592773 1.88012695 C6.19196721 4.69112397 6.31465759 7.50179241 6.4375 10.3125 C6.47681641 11.28896484 6.51613281 12.26542969 6.55664062 13.27148438 C6.59853516 14.20927734 6.64042969 15.14707031 6.68359375 16.11328125 C6.72025146 16.97735596 6.75690918 17.84143066 6.79467773 18.73168945 C6.92747354 21.1647826 6.92747354 21.1647826 8 24 C9.65 24 11.3 24 13 24 C13.95168683 21.14493951 14.1900946 19.09062718 14.31640625 16.11328125 C14.35830078 15.17548828 14.40019531 14.23769531 14.44335938 13.27148438 C14.48267578 12.29501953 14.52199219 11.31855469 14.5625 10.3125 C14.60568359 9.32443359 14.64886719 8.33636719 14.69335938 7.31835938 C14.79941654 4.87904454 14.90147714 2.43962887 15 0 C16.98 0 18.96 0 21 0 C21.11638426 4.06225821 21.18731373 8.1240863 21.25 12.1875 C21.30027344 13.91323242 21.30027344 13.91323242 21.3515625 15.67382812 C21.36445312 16.78564453 21.37734375 17.89746094 21.390625 19.04296875 C21.41157227 20.06414795 21.43251953 21.08532715 21.45410156 22.13745117 C20.88121902 25.74876717 19.50385825 27.38934073 17 30 C13.54260443 31.72869779 9.78024432 31.48966895 6 31 C3.12970131 29.20606332 1.50868362 28.01736724 0 25 C-0.084915 23.1136088 -0.107193 21.22421485 -0.09765625 19.3359375 C-0.09443359 18.21445313 -0.09121094 17.09296875 -0.08789062 15.9375 C-0.07951172 14.761875 -0.07113281 13.58625 -0.0625 12.375 C-0.05798828 11.19164062 -0.05347656 10.00828125 -0.04882812 8.7890625 C-0.03701467 5.85932493 -0.02054258 2.92968728 0 0 Z " fill="#3A3A3C" transform="translate(890,186)"/>
<path d="M0 0 C2.625 2 2.625 2 4 4 C3.34 5.32 2.68 6.64 2 8 C-1.3 7.34 -4.6 6.68 -8 6 C-6.85868342 10.56526633 -6.36363579 10.8017458 -2.5625 13.125 C-0.08829834 14.65797246 1.93721412 15.93721412 4 18 C4.85971396 22.60625691 4.57800884 26.0559189 2.125 30.0625 C-2.2641386 32.78376593 -5.96013515 32.79315906 -11 32 C-14.125 30.5 -14.125 30.5 -16 29 C-15.34 27.02 -14.68 25.04 -14 23 C-13.278125 23.33 -12.55625 23.66 -11.8125 24 C-8.98302573 25.00603529 -6.97104534 25.16977402 -4 25 C-3.67 24.34 -3.34 23.68 -3 23 C-5.74529741 20.03887732 -8.80106478 18.21585752 -12.2578125 16.18359375 C-14 15 -14 15 -15 13 C-15.46650092 8.25724067 -15.66962226 6.07139562 -13.125 2 C-8.77712601 -0.78263935 -5.03588328 -0.95962025 0 0 Z " fill="#3A3A3C" transform="translate(1004,234)"/>
<path d="M0 0 C2.625 2 2.625 2 4 4 C3.34 5.32 2.68 6.64 2 8 C-1.3 7.34 -4.6 6.68 -8 6 C-6.85868342 10.56526633 -6.36363579 10.8017458 -2.5625 13.125 C-0.08829834 14.65797246 1.93721412 15.93721412 4 18 C4.85971396 22.60625691 4.57800884 26.0559189 2.125 30.0625 C-2.2641386 32.78376593 -5.96013515 32.79315906 -11 32 C-14.125 30.5 -14.125 30.5 -16 29 C-15.34 27.02 -14.68 25.04 -14 23 C-13.278125 23.33 -12.55625 23.66 -11.8125 24 C-8.98302573 25.00603529 -6.97104534 25.16977402 -4 25 C-3.67 24.34 -3.34 23.68 -3 23 C-5.74529741 20.03887732 -8.80106478 18.21585752 -12.2578125 16.18359375 C-14 15 -14 15 -15 13 C-15.46650092 8.25724067 -15.66962226 6.07139562 -13.125 2 C-8.77712601 -0.78263935 -5.03588328 -0.95962025 0 0 Z " fill="#3A3A3C" transform="translate(491,185)"/>
<path d="M0 0 C2.625 2 2.625 2 4 4 C3.34 5.32 2.68 6.64 2 8 C-1.3 7.34 -4.6 6.68 -8 6 C-6.85868342 10.56526633 -6.36363579 10.8017458 -2.5625 13.125 C-0.08829834 14.65797246 1.93721412 15.93721412 4 18 C4.85971396 22.60625691 4.57800884 26.0559189 2.125 30.0625 C-2.2641386 32.78376593 -5.96013515 32.79315906 -11 32 C-14.125 30.5 -14.125 30.5 -16 29 C-15.34 27.02 -14.68 25.04 -14 23 C-13.278125 23.33 -12.55625 23.66 -11.8125 24 C-8.98302573 25.00603529 -6.97104534 25.16977402 -4 25 C-3.67 24.34 -3.34 23.68 -3 23 C-5.74529741 20.03887732 -8.80106478 18.21585752 -12.2578125 16.18359375 C-14 15 -14 15 -15 13 C-15.46650092 8.25724067 -15.66962226 6.07139562 -13.125 2 C-8.77712601 -0.78263935 -5.03588328 -0.95962025 0 0 Z " fill="#3A3A3C" transform="translate(422,185)"/>
<path d="M0 0 C2.31 0 4.62 0 7 0 C8.65 5.61 10.3 11.22 12 17 C13.80238879 13.39522241 14.97159894 10.0946702 16.125 6.25 C16.65480469 4.49429688 16.65480469 4.49429688 17.1953125 2.703125 C17.46085938 1.81109375 17.72640625 0.9190625 18 0 C20.31 0 22.62 0 25 0 C23.72977021 7.03264333 21.98783682 13.80124472 19.875 20.625 C19.59785156 21.53378906 19.32070313 22.44257813 19.03515625 23.37890625 C18.36103243 25.58724291 17.68113281 27.7938151 17 30 C14.03 30 11.06 30 8 30 C6.85543097 26.21127865 5.71625345 22.42098253 4.58203125 18.62915039 C4.00545178 16.70568707 3.42462069 14.78349989 2.84375 12.86132812 C2.4828125 11.65283203 2.121875 10.44433594 1.75 9.19921875 C1.41484375 8.08377686 1.0796875 6.96833496 0.734375 5.8190918 C0 3 0 3 0 0 Z " fill="#3A3A3C" transform="translate(744,235)"/>
<path d="M0 0 C3.34625024 2.52676039 4.67977847 4.03933542 6 8 C4.02 8.66 2.04 9.32 0 10 C-0.33 9.01 -0.66 8.02 -1 7 C-2.98 7 -4.96 7 -7 7 C-9.9253964 12.6167611 -10.34641886 15.7857591 -9 22 C-8.34 22.99 -7.68 23.98 -7 25 C-3.91634129 25.2502157 -3.91634129 25.2502157 -1 25 C-0.67 24.01 -0.34 23.02 0 22 C2.4375 22.375 2.4375 22.375 5 23 C5.33 23.66 5.66 24.32 6 25 C2.25 30.875 2.25 30.875 0 32 C-5.10641248 32.63265287 -8.789945 32.90754125 -13 29.75 C-17.8301764 23.10850746 -17.76502611 17.10190304 -17 9 C-14.20278909 0.52569107 -8.24407853 -1.31484506 0 0 Z " fill="#3A3A3C" transform="translate(462,234)"/>
<path d="M0 0 C3.34625024 2.52676039 4.67977847 4.03933542 6 8 C4.02 8.66 2.04 9.32 0 10 C-0.33 9.01 -0.66 8.02 -1 7 C-2.98 7 -4.96 7 -7 7 C-9.9253964 12.6167611 -10.34641886 15.7857591 -9 22 C-8.34 22.99 -7.68 23.98 -7 25 C-3.91634129 25.2502157 -3.91634129 25.2502157 -1 25 C-0.67 24.01 -0.34 23.02 0 22 C2.4375 22.375 2.4375 22.375 5 23 C5.33 23.66 5.66 24.32 6 25 C2.25 30.875 2.25 30.875 0 32 C-5.10641248 32.63265287 -8.789945 32.90754125 -13 29.75 C-17.8301764 23.10850746 -17.76502611 17.10190304 -17 9 C-14.20278909 0.52569107 -8.24407853 -1.31484506 0 0 Z " fill="#3A3A3C" transform="translate(661,185)"/>
<path d="M0 0 C5.61 0 11.22 0 17 0 C17 1.98 17 3.96 17 6 C13.37 6 9.74 6 6 6 C6 7.98 6 9.96 6 12 C9.63 12 13.26 12 17 12 C17 13.98 17 15.96 17 18 C13.37 18 9.74 18 6 18 C6 19.98 6 21.96 6 24 C9.63 24 13.26 24 17 24 C17 25.98 17 27.96 17 30 C11.39 30 5.78 30 0 30 C0 20.1 0 10.2 0 0 Z " fill="#3A3A3C" transform="translate(772,235)"/>
<path d="M0 0 C5.61 0 11.22 0 17 0 C17 1.98 17 3.96 17 6 C13.37 6 9.74 6 6 6 C6 7.98 6 9.96 6 12 C9.63 12 13.26 12 17 12 C17 13.98 17 15.96 17 18 C13.37 18 9.74 18 6 18 C6 19.98 6 21.96 6 24 C9.63 24 13.26 24 17 24 C17 25.98 17 27.96 17 30 C11.39 30 5.78 30 0 30 C0 20.1 0 10.2 0 0 Z " fill="#3A3A3C" transform="translate(726,235)"/>
<path d="M0 0 C5.61 0 11.22 0 17 0 C17 1.98 17 3.96 17 6 C13.37 6 9.74 6 6 6 C6 7.98 6 9.96 6 12 C9.63 12 13.26 12 17 12 C17 13.98 17 15.96 17 18 C13.37 18 9.74 18 6 18 C6 19.98 6 21.96 6 24 C9.63 24 13.26 24 17 24 C17 25.98 17 27.96 17 30 C11.39 30 5.78 30 0 30 C0 20.1 0 10.2 0 0 Z " fill="#3A3A3C" transform="translate(371,235)"/>
<path d="M0 0 C5.61 0 11.22 0 17 0 C17 1.98 17 3.96 17 6 C13.37 6 9.74 6 6 6 C6 7.98 6 9.96 6 12 C9.63 12 13.26 12 17 12 C17 13.98 17 15.96 17 18 C13.37 18 9.74 18 6 18 C6 19.98 6 21.96 6 24 C9.63 24 13.26 24 17 24 C17 25.98 17 27.96 17 30 C11.39 30 5.78 30 0 30 C0 20.1 0 10.2 0 0 Z " fill="#3A3A3C" transform="translate(536,186)"/>
<path d="M0 0 C5.61 0 11.22 0 17 0 C17 1.98 17 3.96 17 6 C13.37 6 9.74 6 6 6 C6 7.98 6 9.96 6 12 C9.63 12 13.26 12 17 12 C17 13.98 17 15.96 17 18 C13.37 18 9.74 18 6 18 C6 19.98 6 21.96 6 24 C9.63 24 13.26 24 17 24 C17 25.98 17 27.96 17 30 C11.39 30 5.78 30 0 30 C0 20.1 0 10.2 0 0 Z " fill="#3A3A3C" transform="translate(499,186)"/>
<path d="M0 0 C5.61 0 11.22 0 17 0 C17 1.98 17 3.96 17 6 C13.37 6 9.74 6 6 6 C6 7.98 6 9.96 6 12 C9.63 12 13.26 12 17 12 C17 13.98 17 15.96 17 18 C13.37 18 9.74 18 6 18 C6 19.98 6 21.96 6 24 C9.63 24 13.26 24 17 24 C17 25.98 17 27.96 17 30 C11.39 30 5.78 30 0 30 C0 20.1 0 10.2 0 0 Z " fill="#3A3A3C" transform="translate(431,186)"/>
<path d="M0 0 C4.95 0 9.9 0 15 0 C20 5 20 5 20.6640625 7.28125 C20.59207226 11.3702954 20.29844352 13.52826669 18.0625 17.0625 C13.77386691 19.77571685 11.01327426 19.37412494 6 19 C6 22.63 6 26.26 6 30 C4.02 30 2.04 30 0 30 C0 20.1 0 10.2 0 0 Z M6 6 C6 8.31 6 10.62 6 13 C7.98 13 9.96 13 12 13 C12.66 11.68 13.32 10.36 14 9 C13.34 8.01 12.68 7.02 12 6 C8.91634129 5.7497843 8.91634129 5.7497843 6 6 Z " fill="#3A3A3C" transform="translate(677,235)"/>
<path d="M0 0 C6.6 0 13.2 0 20 0 C20 1.98 20 3.96 20 6 C17.69 6 15.38 6 13 6 C13 13.92 13 21.84 13 30 C11.02 30 9.04 30 7 30 C7 22.08 7 14.16 7 6 C4.69 6 2.38 6 0 6 C0 4.02 0 2.04 0 0 Z " fill="#3A3A3C" transform="translate(1010,235)"/>
<path d="M0 0 C6.6 0 13.2 0 20 0 C20 1.98 20 3.96 20 6 C17.69 6 15.38 6 13 6 C13 13.92 13 21.84 13 30 C11.02 30 9.04 30 7 30 C7 22.08 7 14.16 7 6 C4.69 6 2.38 6 0 6 C0 4.02 0 2.04 0 0 Z " fill="#3A3A3C" transform="translate(915,235)"/>
<path d="M0 0 C6.6 0 13.2 0 20 0 C20 1.98 20 3.96 20 6 C17.69 6 15.38 6 13 6 C13 13.92 13 21.84 13 30 C11.02 30 9.04 30 7 30 C7 22.08 7 14.16 7 6 C4.69 6 2.38 6 0 6 C0 4.02 0 2.04 0 0 Z " fill="#3A3A3C" transform="translate(819,235)"/>
<path d="M0 0 C6.6 0 13.2 0 20 0 C20 1.98 20 3.96 20 6 C17.69 6 15.38 6 13 6 C13 13.92 13 21.84 13 30 C11.02 30 9.04 30 7 30 C7 22.08 7 14.16 7 6 C4.69 6 2.38 6 0 6 C0 4.02 0 2.04 0 0 Z " fill="#3A3A3C" transform="translate(491,235)"/>
<path d="M0 0 C6.6 0 13.2 0 20 0 C20 1.98 20 3.96 20 6 C17.69 6 15.38 6 13 6 C13 13.92 13 21.84 13 30 C11.02 30 9.04 30 7 30 C7 22.08 7 14.16 7 6 C4.69 6 2.38 6 0 6 C0 4.02 0 2.04 0 0 Z " fill="#3A3A3C" transform="translate(787,186)"/>
<path d="M0 0 C6.6 0 13.2 0 20 0 C20 1.98 20 3.96 20 6 C17.69 6 15.38 6 13 6 C13 13.92 13 21.84 13 30 C11.02 30 9.04 30 7 30 C7 22.08 7 14.16 7 6 C4.69 6 2.38 6 0 6 C0 4.02 0 2.04 0 0 Z " fill="#3A3A3C" transform="translate(691,186)"/>
<path d="M0 0 C1.98 0 3.96 0 6 0 C6 9.9 6 19.8 6 30 C4.02 30 2.04 30 0 30 C0 20.1 0 10.2 0 0 Z " fill="#3A3A3C" transform="translate(842,235)"/>
<path d="M0 0 C1.98 0 3.96 0 6 0 C6 9.9 6 19.8 6 30 C4.02 30 2.04 30 0 30 C0 20.1 0 10.2 0 0 Z " fill="#3A3A3C" transform="translate(514,235)"/>
<path d="M0 0 C1.98 0 3.96 0 6 0 C6 9.9 6 19.8 6 30 C4.02 30 2.04 30 0 30 C0 20.1 0 10.2 0 0 Z " fill="#3A3A3C" transform="translate(714,186)"/>
<path d="M0 0 C1.98 0 3.96 0 6 0 C6 9.9 6 19.8 6 30 C4.02 30 2.04 30 0 30 C0 20.1 0 10.2 0 0 Z " fill="#3A3A3C" transform="translate(634,186)"/>
<path d="M0 0 C1.98 0 3.96 0 6 0 C6 9.9 6 19.8 6 30 C4.02 30 2.04 30 0 30 C0 20.1 0 10.2 0 0 Z " fill="#3A3A3C" transform="translate(397,186)"/>
</svg>
